<svg width="151" height="100" viewBox="0 0 151 100" fill="none" xmlns="http://www.w3.org/2000/svg">
<path d="M37.7414 9.36502H2L11.8859 15.4487L21.0114 22.2928L23.2928 34.4601H32.4183L37.7414 39.0228L40.0228 48.9087L49.9087 41.3042L62.076 45.8669L65.8783 55.7528L68.9202 51.9506H79.5665L91.7338 58.7947L81.8479 63.3574L65.8783 70.2015L52.9506 72.4829H37.7414L30.1369 70.2015L21.0114 58.7947V67.1597L30.1369 75.5247L45.346 81.6084H57.5133V84.6502L54.4715 87.692L49.9087 89.2129L47.6274 94.5361H52.9506L47.6274 99.0989H57.5133L62.076 94.5361H68.9202L79.5665 89.2129L81.8479 81.6084H87.1711L91.7338 84.6502H109.985L116.829 78.5665V70.2015L120.631 67.1597H131.278L138.882 75.5247H149.529L144.205 67.1597L136.601 58.7947L125.954 51.9506H116.829L112.266 55.7528H104.662L91.7338 32.9392L73.4829 9.36502L49.9087 1H21.0114L33.9392 4.04183L37.7414 9.36502Z" fill="#535353" stroke="#535353"/>
</svg>
